<svg width="12" height="12" viewBox="0 0 12 12" fill="none" xmlns="http://www.w3.org/2000/svg">
<path d="M5.12475 1.58383C5.50519 0.895394 6.49481 0.895394 6.87525 1.58383L7.65696 2.99839C7.80037 3.2579 8.05154 3.44039 8.34267 3.49659L9.92956 3.80292C10.7019 3.952 11.0077 4.89318 10.4705 5.46774L9.36673 6.64831C9.16423 6.8649 9.06829 7.16017 9.10481 7.45442L9.30385 9.0583C9.40072 9.83887 8.6001 10.4206 7.88767 10.0872L6.42379 9.40229C6.15524 9.27663 5.84476 9.27663 5.57621 9.40229L4.11233 10.0872C3.3999 10.4206 2.59928 9.83887 2.69615 9.0583L2.89519 7.45442C2.93171 7.16017 2.83577 6.8649 2.63327 6.64831L1.5295 5.46774C0.992327 4.89318 1.29814 3.952 2.07044 3.80292L3.65733 3.49659C3.94846 3.44039 4.19963 3.2579 4.34304 2.99839L5.12475 1.58383Z" fill="url(#paint0_linear_7816_10)"/>
<defs>
<linearGradient id="paint0_linear_7816_10" x1="1.37419" y1="-3.6517e-07" x2="11.5161" y2="-5.09166e-07" gradientUnits="userSpaceOnUse">
<stop stop-color="#A02279"/>
<stop stop-color="#A02279"/>
</linearGradient>
</defs>
</svg>
